<svg width="198" height="197" viewBox="0 0 198 197" fill="none" xmlns="http://www.w3.org/2000/svg">
<circle cx="102.337" cy="105.54" r="77.3022" fill="#F3F4F6"/>
<circle cx="29.8803" cy="53.3449" r="4.84515" fill="#F3F4F6"/>
<circle cx="64.8978" cy="22.2913" r="9.0296" fill="#F3F4F6"/>
<circle cx="31.4221" cy="155.312" r="8.58913" fill="#F3F4F6"/>
<circle cx="185.147" cy="146.944" r="8.58913" fill="#F3F4F6"/>
<circle cx="168.408" cy="156.634" r="4.18445" fill="#F3F4F6"/>
<path d="M102.647 38.1623C101.919 38.0074 101.919 36.9681 102.647 36.8132L104.166 36.4904C104.431 36.4339 104.639 36.2271 104.696 35.962L105.029 34.4291C105.186 33.7045 106.219 33.7045 106.377 34.4291L106.709 35.962C106.766 36.2271 106.974 36.4339 107.239 36.4904L108.758 36.8132C109.486 36.9681 109.486 38.0074 108.758 38.1623L107.239 38.4851C106.974 38.5416 106.766 38.7483 106.709 39.0135L106.377 40.5464C106.219 41.271 105.186 41.271 105.029 40.5464L104.696 39.0135C104.639 38.7484 104.431 38.5416 104.166 38.4851L102.647 38.1623Z" fill="#9CA3AF"/>
<path d="M10.6816 79.4116C10.9627 78.0836 12.8581 78.0836 13.1392 79.4116L13.7045 82.0824C13.8069 82.5658 14.1832 82.9443 14.666 83.0495L17.3772 83.6402C18.6955 83.9273 18.6955 85.8075 17.3772 86.0947L14.666 86.6853C14.1832 86.7905 13.8069 87.169 13.7045 87.6525L13.1392 90.3233C12.8581 91.6512 10.9627 91.6512 10.6816 90.3233L10.1163 87.6525C10.0139 87.169 9.63763 86.7905 9.15479 86.6853L6.44359 86.0947C5.12534 85.8075 5.12534 83.9273 6.44359 83.6402L9.15479 83.0495C9.63763 82.9443 10.0139 82.5658 10.1163 82.0824L10.6816 79.4116Z" fill="#9CA3AF"/>
<path d="M170.667 101.235C170.939 99.9524 172.769 99.9524 173.04 101.235C173.139 101.701 173.504 102.067 173.97 102.169C175.258 102.449 175.258 104.291 173.97 104.571C173.504 104.673 173.139 105.039 173.04 105.505C172.769 106.788 170.939 106.788 170.667 105.505C170.569 105.039 170.204 104.673 169.738 104.571C168.449 104.291 168.449 102.449 169.738 102.169C170.204 102.067 170.569 101.701 170.667 101.235Z" fill="#9CA3AF"/>
<path d="M189.18 120.442L190.529 126.814L196.81 128.183L190.529 129.551L189.18 135.924L187.831 129.551L181.55 128.183L187.831 126.814L189.18 120.442Z" fill="white"/>
<path d="M160.92 42.7734L68.6416 140.117L79.2128 181.741L86.4806 146.724L160.92 42.7734Z" fill="#D1D5DB"/>
<path d="M68.2021 139.676L78.9936 182.622L85.8209 146.944" stroke="#9CA3AF" stroke-width="5.02418"/>
<path d="M78.7725 181.741L106.522 155.533" stroke="#9CA3AF" stroke-width="5.02418"/>
<path d="M160.92 42.7734L86.2607 146.504L144.843 172.712L160.92 42.7734Z" fill="#E5E7EB" stroke="#9CA3AF" stroke-width="5.02418"/>
<path d="M160.92 41.8923L22.833 120.296L68.2012 139.676L160.92 41.8923Z" fill="#E5E7EB" stroke="#9CA3AF" stroke-width="5.02418"/>
<path d="M107.843 156.422L86.572 147.164L78.7725 182.842L107.843 156.422Z" fill="#9CA3AF"/>
</svg>
