<svg width="198" height="180" viewBox="0 0 198 180" fill="none" xmlns="http://www.w3.org/2000/svg">
<circle cx="97.611" cy="97.7321" r="81.4821" fill="#F3F4F6"/>
<circle cx="21.236" cy="42.7143" r="5.10714" fill="#F3F4F6"/>
<circle cx="155.647" cy="9.51786" r="9.51786" fill="#F3F4F6"/>
<circle cx="22.8612" cy="150.196" r="9.05357" fill="#F3F4F6"/>
<circle cx="184.897" cy="141.375" r="9.05357" fill="#F3F4F6"/>
<circle cx="167.254" cy="151.589" r="4.41071" fill="#F3F4F6"/>
<path d="M189.149 113.439L190.571 120.156L197.192 121.599L190.571 123.041L189.149 129.758L187.727 123.041L181.106 121.599L187.727 120.156L189.149 113.439Z" fill="#E5E7EB"/>
<path d="M180.646 44.8603C180.75 44.3694 181.451 44.3694 181.555 44.8603L182.46 49.1377C182.498 49.3164 182.637 49.4564 182.815 49.4952L187.061 50.4201C187.548 50.5263 187.548 51.2212 187.061 51.3274L182.815 52.2523C182.637 52.2911 182.498 52.431 182.46 52.6098L181.555 56.8872C181.451 57.3781 180.75 57.3781 180.646 56.8872L179.741 52.6098C179.703 52.431 179.564 52.2911 179.385 52.2523L175.14 51.3274C174.653 51.2212 174.653 50.5263 175.14 50.4201L179.385 49.4952C179.564 49.4564 179.703 49.3164 179.741 49.1377L180.646 44.8603Z" fill="#9CA3AF"/>
<path d="M12.054 101.039C12.1579 100.548 12.8585 100.548 12.9624 101.039L14.5144 108.371C14.5523 108.55 14.6913 108.69 14.8698 108.728L22.1264 110.309C22.6137 110.415 22.6137 111.11 22.1264 111.217L14.8698 112.797C14.6913 112.836 14.5523 112.976 14.5144 113.155L12.9624 120.487C12.8585 120.978 12.1579 120.978 12.054 120.487L10.5019 113.155C10.4641 112.976 10.325 112.836 10.1466 112.797L2.89 111.217C2.40272 111.11 2.40272 110.415 2.89 110.309L10.1466 108.728C10.325 108.69 10.4641 108.55 10.5019 108.371L12.054 101.039Z" fill="#9CA3AF"/>
<path d="M40.9801 22.9993C40.7109 22.9421 40.7109 22.5579 40.9801 22.5007L45.0499 21.6352C45.1479 21.6144 45.2247 21.5379 45.2459 21.4399L46.1222 17.3988C46.1803 17.131 46.5624 17.131 46.6205 17.3988L47.4967 21.4399C47.518 21.5379 47.5947 21.6144 47.6928 21.6352L51.7626 22.5007C52.0318 22.5579 52.0318 22.9421 51.7626 22.9993L47.6928 23.8648C47.5947 23.8856 47.518 23.9621 47.4967 24.0601L46.6205 28.1012C46.5624 28.369 46.1803 28.369 46.1222 28.1012L45.2459 24.0601C45.2247 23.9621 45.1479 23.8856 45.0499 23.8648L40.9801 22.9993Z" fill="#9CA3AF"/>
<g clip-path="url(#clip0_823_14944)">
<path d="M72.4559 38.1327L72.4561 38.1327C84.2402 33.0021 97.2847 31.4946 109.928 33.8022C122.572 36.1097 134.243 42.1278 143.455 51.0903C152.667 60.0527 159.004 71.554 161.658 84.1296C164.312 96.7052 163.163 109.786 158.358 121.707C153.553 133.627 145.31 143.848 134.676 151.068C124.043 158.288 111.502 162.18 98.6498 162.249C85.7974 162.318 73.2153 158.56 62.5056 151.455C51.7959 144.349 43.4431 134.217 38.5109 122.348L38.5034 122.33L38.4955 122.312C38.254 121.766 38.1242 121.177 38.1136 120.579C38.1029 119.982 38.2118 119.389 38.4337 118.834L36.8181 118.188L38.4337 118.834C38.6556 118.279 38.9862 117.774 39.4059 117.349C39.8256 116.924 40.326 116.587 40.8778 116.358C41.4296 116.129 42.0215 116.012 42.6189 116.015C43.2164 116.018 43.8072 116.141 44.3567 116.375C44.9062 116.609 45.4034 116.951 45.8189 117.38C46.2345 117.81 46.5601 118.318 46.7767 118.874L46.7839 118.893L46.7916 118.911C51.5805 130.438 60.0967 140.025 70.978 146.139C81.8593 152.253 94.4768 154.542 106.812 152.638C119.148 150.734 130.488 144.748 139.02 135.638C147.551 126.527 152.781 114.819 153.871 102.385C154.962 89.9512 151.852 77.5108 145.037 67.0539C138.222 56.5969 128.098 48.7276 116.282 44.7048C104.467 40.682 91.6436 40.7381 79.8638 44.8642C68.0841 48.9902 58.0285 56.9478 51.3056 67.464L49.5843 70.1566H52.7801H67.1357C68.3251 70.1566 69.4657 70.6291 70.3067 71.47C71.1477 72.311 71.6201 73.4516 71.6201 74.641C71.6201 75.8303 71.1477 76.9709 70.3067 77.8119C69.4657 78.6529 68.3251 79.1253 67.1357 79.1253H33.5576V45.5472C33.5576 44.3579 34.0301 43.2173 34.8711 42.3763C35.712 41.5353 36.8527 41.0628 38.042 41.0628C39.2313 41.0628 40.3719 41.5353 41.2129 42.3763C42.0539 43.2173 42.5264 44.3579 42.5264 45.5472V58.7308V64.1696L45.698 59.7514C52.5064 50.2669 61.7521 42.7919 72.4559 38.1327ZM102.792 94.9235V95.6483L103.305 96.1609L120.212 113.069L120.234 113.09L120.257 113.111C120.697 113.522 121.051 114.017 121.296 114.567C121.541 115.117 121.673 115.711 121.683 116.313C121.694 116.915 121.583 117.513 121.357 118.072C121.132 118.63 120.796 119.137 120.37 119.563C119.945 119.989 119.437 120.325 118.879 120.55C118.321 120.776 117.723 120.887 117.12 120.876C116.518 120.865 115.924 120.733 115.374 120.488C114.824 120.243 114.329 119.89 113.919 119.449L113.898 119.427L113.876 119.405L95.1394 100.669L93.8232 99.3523V62.1722C93.8232 60.9829 94.2957 59.8423 95.1367 59.0013C95.9777 58.1603 97.1183 57.6878 98.3076 57.6878C99.4969 57.6878 100.638 58.1603 101.479 59.0013C102.32 59.8423 102.792 60.9829 102.792 62.1722V94.9235Z" fill="#D1D5DB" stroke="#9CA3AF" stroke-width="3.5"/>
</g>
<defs>
<clipPath id="clip0_823_14944">
<rect width="133" height="133" fill="white" transform="translate(31.8076 31)"/>
</clipPath>
</defs>
</svg>
