<svg width="36" height="40" viewBox="0 0 36 40" fill="none" xmlns="http://www.w3.org/2000/svg">
<path d="M15.2126 30.4752C16.2585 30.4752 17.1541 30.1025 17.8995 29.3571C18.6449 28.6117 19.017 27.7167 19.0157 26.6721C19.0157 25.6262 18.643 24.7306 17.8976 23.9852C17.1522 23.2397 16.2572 22.8677 15.2126 22.8689C14.1667 22.8689 13.2711 23.2416 12.5257 23.9871C11.7802 24.7325 11.4082 25.6275 11.4094 26.6721C11.4094 27.7179 11.7822 28.6136 12.5276 29.359C13.273 30.1044 14.168 30.4765 15.2126 30.4752ZM3.80315 39.9831C2.75728 39.9831 1.86164 39.6104 1.11623 38.865C0.37081 38.1195 -0.00126449 37.2245 3.22848e-06 36.1799V17.1642C3.22848e-06 16.1183 0.372711 15.2227 1.11813 14.4773C1.86354 13.7319 2.75855 13.3598 3.80315 13.3611H17.1142V9.55791C17.1142 6.92741 18.0415 4.68482 19.8962 2.83015C21.7508 0.975482 23.9928 0.0487824 26.622 0.0500501C28.999 0.0500501 31.0673 0.81892 32.8269 2.35666C34.5864 3.8944 35.6393 5.78773 35.9854 8.03666C36.0488 8.44866 35.9061 8.80553 35.5575 9.10724C35.2089 9.40896 34.7658 9.55918 34.2283 9.55791C33.6895 9.55791 33.2458 9.44699 32.8972 9.22514C32.5486 9.00329 32.2951 8.63882 32.1366 8.13173C31.788 6.92741 31.1148 5.91323 30.1171 5.08922C29.1194 4.2652 27.9544 3.8532 26.622 3.8532C25.0374 3.8532 23.6904 4.40782 22.5812 5.51707C21.4719 6.62632 20.9173 7.97327 20.9173 9.55791V13.3611H26.622C27.6679 13.3611 28.5635 13.7338 29.3089 14.4792C30.0544 15.2246 30.4264 16.1196 30.4252 17.1642V36.1799C30.4252 37.2258 30.0525 38.1214 29.307 38.8669C28.5616 39.6123 27.6666 39.9844 26.622 39.9831H3.80315Z" fill="white"/>
</svg>
