<svg width="141" height="80" viewBox="0 0 141 80" fill="none" xmlns="http://www.w3.org/2000/svg">
<path d="M0.499756 55.3479V23.4178C0.499756 22.1829 1.50001 21.1826 2.73497 21.1826H6.86453C8.09948 21.1826 9.09974 22.1829 9.09974 23.4178V56.2196C9.09974 58.2089 9.89324 59.5221 11.4858 60.148C12.447 60.528 13.0952 61.4388 13.0952 62.4726V65.6801C13.0952 66.971 11.9664 67.96 10.6812 67.8148C3.89169 67.0492 0.499756 62.8973 0.499756 55.3479Z" fill="white"/>
<path d="M22.3528 67.3163C21.0787 67.3163 20.0505 66.2826 20.0505 65.0141V36.7051C20.0505 35.431 21.0843 34.4028 22.3528 34.4028H26.3483C27.6223 34.4028 28.6505 35.4366 28.6505 36.7051V65.0141C28.6505 66.2882 27.6167 67.3163 26.3483 67.3163H22.3528Z" fill="white"/>
<path d="M34.5036 36.4157C34.3639 35.9687 34.431 35.4825 34.6936 35.0913C34.9842 34.6611 35.4648 34.3984 35.9844 34.3984H40.8963C41.891 34.3984 42.7683 35.0522 43.0533 36.0022L50.0886 59.539C50.1389 59.7178 50.3066 59.8352 50.491 59.8352C50.6754 59.8352 50.8374 59.7122 50.8933 59.539L57.9286 36.0022C58.2136 35.0522 59.091 34.3984 60.0856 34.3984H64.9975C65.5172 34.3984 66.0034 34.6555 66.2883 35.0913C66.551 35.4825 66.618 35.9687 66.4783 36.4157L57.2804 65.7417C56.9843 66.6805 56.1181 67.3175 55.1346 67.3175H45.8417C44.8582 67.3175 43.9921 66.6805 43.6959 65.7417L34.5036 36.4157Z" fill="white"/>
<path d="M75.143 67.3172C73.9136 67.3172 72.9133 66.3225 72.9133 65.0876V26.5246C72.9133 25.2952 73.908 24.2949 75.143 24.2949H79.6693C80.8986 24.2949 81.8989 25.2896 81.8989 26.5246V65.0876C81.8989 66.3169 80.9042 67.3172 79.6693 67.3172H75.143Z" fill="#F15B3B"/>
<path d="M92.4082 67.3165C91.1285 67.3165 90.0947 66.2771 90.0947 65.003V26.6133C90.0947 25.3336 91.1341 24.2998 92.4082 24.2998H106.071C115.979 24.2998 124.009 32.3298 124.009 42.2374V49.3789C124.009 59.2865 115.979 67.3165 106.071 67.3165H92.4082ZM99.0747 56.8948C99.0747 58.1745 100.114 59.2083 101.388 59.2083H106.568C111.24 59.2083 115.029 55.4196 115.029 50.748V40.8627C115.029 36.1911 111.24 32.4025 106.568 32.4025H101.388C100.108 32.4025 99.0747 33.4418 99.0747 34.7159V56.8948Z" fill="#F15B3B"/>
<path d="M22.2061 21.1826C20.9097 21.1826 19.8591 22.2332 19.8591 23.5296V27.2512C19.8591 28.5476 20.9097 29.5982 22.2061 29.5982H26.4921C27.7885 29.5982 28.8391 28.5476 28.8391 27.2512V23.5296C28.8391 22.2332 27.7885 21.1826 26.4921 21.1826H22.2061Z" fill="#F15B3B"/>
<path d="M75.3597 0.344727H63.5242C62.2278 0.344727 61.1829 1.39528 61.1829 2.68611V16.1756C61.1829 17.4721 62.2334 18.517 63.5242 18.517H64.5972C65.8936 18.517 66.9385 17.4665 66.9385 16.1756V8.75472C66.9385 7.4583 67.9891 6.41333 69.2799 6.41333H75.3541C76.6505 6.41333 77.6955 5.36279 77.6955 4.07195V2.69729C77.7067 1.39528 76.6561 0.344727 75.3597 0.344727Z" fill="#F15B3B"/>
<path d="M126.187 0.344727H138.269C139.498 0.344727 140.493 1.3394 140.493 2.56877V16.3042C140.493 17.5335 139.498 18.5282 138.269 18.5282H136.955C135.726 18.5282 134.731 17.5335 134.731 16.3042V8.63178C134.731 7.40241 133.737 6.40775 132.507 6.40775H126.187C124.958 6.40775 123.963 5.41308 123.963 4.18371V2.56318C123.969 1.3394 124.963 0.344727 126.187 0.344727Z" fill="#F15B3B"/>
<path d="M126.195 79.6552H138.282C139.506 79.6552 140.5 78.6605 140.5 77.4367V63.6957C140.5 62.472 139.506 61.4773 138.282 61.4773H136.963C135.739 61.4773 134.745 62.472 134.745 63.6957V71.3737C134.745 72.5975 133.75 73.5922 132.526 73.5922H126.2C124.977 73.5922 123.982 74.5868 123.982 75.8106V77.4367C123.976 78.6605 124.971 79.6552 126.195 79.6552Z" fill="#F15B3B"/>
</svg>
