<svg width="140" height="80" viewBox="0 0 140 80" fill="none" xmlns="http://www.w3.org/2000/svg">
<path d="M0 55.0031V23.0731C0 21.8381 1.00026 20.8379 2.23521 20.8379H6.36477C7.59973 20.8379 8.59998 21.8381 8.59998 23.0731V55.8749C8.59998 57.8642 9.39349 59.1774 10.9861 59.8032C11.9472 60.1832 12.5954 61.0941 12.5954 62.1279V65.3354C12.5954 66.6262 11.4666 67.6153 10.1814 67.47C3.39194 66.7045 0 62.5526 0 55.0031Z" fill="#051337"/>
<path d="M21.8531 66.9716C20.579 66.9716 19.5508 65.9378 19.5508 64.6694V36.3604C19.5508 35.0863 20.5846 34.0581 21.8531 34.0581H25.8485C27.1226 34.0581 28.1508 35.0919 28.1508 36.3604V64.6694C28.1508 65.9434 27.117 66.9716 25.8485 66.9716H21.8531Z" fill="#051337"/>
<path d="M34.0038 36.071C33.8641 35.6239 33.9311 35.1378 34.1938 34.7466C34.4843 34.3163 34.9649 34.0537 35.4846 34.0537H40.3965C41.3912 34.0537 42.2685 34.7075 42.5535 35.6575L49.5888 59.1943C49.6391 59.3731 49.8067 59.4904 49.9911 59.4904C50.1755 59.4904 50.3376 59.3675 50.3935 59.1943L57.4288 35.6575C57.7138 34.7075 58.5911 34.0537 59.5858 34.0537H64.4977C65.0174 34.0537 65.5035 34.3108 65.7885 34.7466C66.0511 35.1378 66.1182 35.6239 65.9785 36.071L56.7806 65.397C56.4844 66.3358 55.6183 66.9728 54.6348 66.9728H45.3419C44.3584 66.9728 43.4923 66.3358 43.1961 65.397L34.0038 36.071Z" fill="#051337"/>
<path d="M74.6432 66.9725C73.4139 66.9725 72.4136 65.9778 72.4136 64.7429V26.1798C72.4136 24.9505 73.4083 23.9502 74.6432 23.9502H79.1695C80.3989 23.9502 81.3992 24.9449 81.3992 26.1798V64.7429C81.3992 65.9722 80.4045 66.9725 79.1695 66.9725H74.6432Z" fill="#F15B3B"/>
<path d="M91.9084 66.9718C90.6287 66.9718 89.595 65.9324 89.595 64.6583V26.2685C89.595 24.9889 90.6343 23.9551 91.9084 23.9551H105.571C115.479 23.9551 123.509 31.9851 123.509 41.8927V49.0342C123.509 58.9418 115.479 66.9718 105.571 66.9718H91.9084ZM98.5749 56.5501C98.5749 57.8297 99.6143 58.8635 100.888 58.8635H106.068C110.74 58.8635 114.529 55.0748 114.529 50.4032V40.518C114.529 35.8464 110.74 32.0577 106.068 32.0577H100.888C99.6087 32.0577 98.5749 33.0971 98.5749 34.3712V56.5501Z" fill="#F15B3B"/>
<path d="M21.7063 20.8379C20.4099 20.8379 19.3594 21.8884 19.3594 23.1849V26.9065C19.3594 28.2029 20.4099 29.2535 21.7063 29.2535H25.9924C27.2888 29.2535 28.3393 28.2029 28.3393 26.9065V23.1849C28.3393 21.8884 27.2888 20.8379 25.9924 20.8379H21.7063Z" fill="#F15B3B"/>
<path d="M74.86 0H63.0245C61.7281 0 60.6831 1.05055 60.6831 2.34139V15.8309C60.6831 17.1273 61.7337 18.1723 63.0245 18.1723H64.0974C65.3938 18.1723 66.4388 17.1217 66.4388 15.8309V8.40999C66.4388 7.11357 67.4894 6.06861 68.7802 6.06861H74.8544C76.1508 6.06861 77.1958 5.01806 77.1958 3.72722V2.35257C77.207 1.05055 76.1564 0 74.86 0Z" fill="#F15B3B"/>
<path d="M125.687 0H137.769C138.998 0 139.993 0.994672 139.993 2.22404V15.9594C139.993 17.1888 138.998 18.1835 137.769 18.1835H136.456C135.226 18.1835 134.231 17.1888 134.231 15.9594V8.28706C134.231 7.05769 133.237 6.06302 132.007 6.06302H125.687C124.458 6.06302 123.463 5.06835 123.463 3.83898V2.21845C123.469 0.994671 124.464 0 125.687 0Z" fill="#F15B3B"/>
<path d="M125.695 79.3104H137.782C139.006 79.3104 140.001 78.3158 140.001 77.092V63.351C140.001 62.1272 139.006 61.1326 137.782 61.1326H136.463C135.24 61.1326 134.245 62.1272 134.245 63.351V71.029C134.245 72.2528 133.25 73.2474 132.026 73.2474H125.701C124.477 73.2474 123.482 74.2421 123.482 75.4659V77.092C123.477 78.3158 124.471 79.3104 125.695 79.3104Z" fill="#F15B3B"/>
</svg>
