<svg width="37" height="42" viewBox="0 0 37 42" fill="none" xmlns="http://www.w3.org/2000/svg">
<path d="M3.14999 12.8C3.70227 12.8 4.13753 12.3455 4.27168 11.8098C4.71756 10.029 6.3361 8.7 8.24999 8.7H24.2358C24.501 8.7 24.7553 8.59464 24.9429 8.40711L32.5571 0.792893C32.7446 0.605356 32.999 0.5 33.2642 0.5H35.95C36.5023 0.5 36.95 0.947715 36.95 1.5V32.3C36.95 32.8523 36.5023 33.3 35.95 33.3H33.2642C32.999 33.3 32.7446 33.1946 32.5571 33.0071L24.9429 25.3929C24.7553 25.2054 24.501 25.1 24.2358 25.1H8.24999C7.1626 25.1 6.11975 24.668 5.35085 23.8991C4.81995 23.3682 4.44968 22.7067 4.27133 21.9901C4.13794 21.4542 3.70227 21 3.14999 21H1.04999C0.497703 21 0.0499878 20.5523 0.0499878 20V13.8C0.0499878 13.2477 0.497703 12.8 1.04999 12.8H3.14999ZM21.55 31.25C20.9977 31.25 20.55 31.6977 20.55 32.25V40.5C20.55 41.0523 20.1023 41.5 19.55 41.5H15.1203C14.6901 41.5 14.3081 41.2248 14.1718 40.8168L11.2047 31.9332C11.0684 31.5252 10.6864 31.25 10.2562 31.25H9.24999C8.6977 31.25 8.24999 30.8023 8.24999 30.25V28.15C8.24999 27.5977 8.6977 27.15 9.24999 27.15H23.65C24.2023 27.15 24.65 27.5977 24.65 28.15V30.25C24.65 30.8023 24.2023 31.25 23.65 31.25H21.55Z" fill="#9CA3AF"/>
</svg>
