<svg width="35" height="32" viewBox="0 0 35 32" fill="none" xmlns="http://www.w3.org/2000/svg">
<path d="M25.9452 20.9343C26.4233 21.2098 27.0341 21.046 27.3103 20.5684L32.7176 11.2154C33.2295 10.3299 34.5834 10.6931 34.5834 11.7159V30.3754C34.5834 30.9277 34.1356 31.3754 33.5834 31.3754H1.41669C0.864403 31.3754 0.416687 30.9277 0.416687 30.3754V1.62538C0.416687 1.07309 0.864402 0.625374 1.41669 0.625374H2.83335C3.38564 0.625374 3.83335 1.07309 3.83335 1.62537V18.3112C3.83335 19.3346 5.18853 19.6973 5.69969 18.8106L12.7278 6.61997C13.0044 6.14024 13.6182 5.9766 14.0969 6.25498L23.4669 11.704C23.9451 11.9821 24.5582 11.8191 24.8352 11.3403L31.0761 0.55114C31.3526 0.0731776 31.9641 -0.0902462 32.4422 0.186081L33.6664 0.893731C34.1445 1.1701 34.3081 1.78171 34.0318 2.25986L26.0972 15.9899C25.8211 16.4676 25.2103 16.6315 24.7322 16.3561L15.3418 10.9469C14.8636 10.6714 14.2527 10.8354 13.9767 11.3132L5.22936 26.4586C4.84432 27.1252 5.32543 27.9587 6.0953 27.9587H7.64809C8.00446 27.9587 8.3339 27.7691 8.51286 27.4609L15.2229 15.9056C15.4995 15.4291 16.1095 15.2662 16.5869 15.5414L25.9452 20.9343Z" fill="#9CA3AF"/>
</svg>
